<?xml version="1.0" standalone="no"?>
<!DOCTYPE svg PUBLIC "-//W3C//DTD SVG 20010904//EN"
 "http://www.w3.org/TR/2001/REC-SVG-20010904/DTD/svg10.dtd">
<svg version="1.0" xmlns="http://www.w3.org/2000/svg"
 width="1903.000000pt" height="1057.000000pt" viewBox="0 0 1903.000000 1057.000000"
 preserveAspectRatio="xMidYMid meet">

<g transform="translate(0.000000,1057.000000) scale(0.100000,-0.100000)"
fill="#000000" stroke="none">
<path d="M11314 8484 c-76 -40 -248 -158 -364 -249 -114 -90 -339 -314 -385
-382 -15 -24 -31 -43 -36 -43 -4 0 -61 15 -126 34 -207 60 -338 77 -619 83
-250 6 -407 -3 -558 -32 l-69 -12 -66 56 c-143 123 -416 317 -556 394 -112 61
-293 147 -338 159 -45 12 -50 11 -63 -7 -39 -53 -110 -365 -140 -610 -11 -93
-17 -225 -18 -391 l-1 -252 -97 -128 c-192 -256 -330 -499 -436 -767 -181
-455 -231 -1017 -131 -1462 24 -103 74 -276 94 -320 7 -16 27 -63 44 -103 40
-95 123 -236 200 -340 64 -86 204 -232 280 -291 49 -39 243 -168 290 -193 32
-18 40 -45 19 -66 -20 -20 -38 -15 -192 60 -126 61 -159 73 -211 76 -46 3 -73
-1 -101 -14 -89 -42 -299 -279 -399 -449 -21 -36 -42 -65 -46 -65 -5 0 -9 -7
-9 -16 0 -9 -18 -50 -39 -92 -40 -80 -111 -257 -130 -327 -20 -72 -17 -78 52
-104 34 -13 80 -32 102 -42 48 -21 207 -81 325 -122 47 -16 117 -40 155 -54
77 -26 406 -128 525 -161 305 -86 672 -162 965 -201 244 -32 561 -61 672 -61
l42 0 3 373 c3 399 5 411 54 423 31 8 75 -21 85 -57 4 -13 7 -188 8 -387 l1
-364 58 6 c31 3 120 11 197 16 152 12 240 22 353 40 l72 12 0 349 c0 341 4
393 33 411 23 14 64 8 83 -13 18 -20 19 -43 22 -370 3 -304 5 -349 18 -349 9
0 61 12 117 26 328 82 743 251 1042 423 135 78 130 70 101 177 -69 253 -194
490 -372 699 l-56 66 -126 -119 c-172 -160 -467 -409 -530 -446 -17 -10 -52
21 -52 45 0 11 58 67 148 142 244 206 494 474 633 677 24 36 46 69 49 75 3 5
31 53 62 106 66 110 141 273 187 402 17 49 31 90 31 91 0 8 -211 86 -233 86
-7 0 -25 -37 -40 -83 -41 -121 -155 -347 -234 -467 -149 -224 -341 -436 -628
-692 -364 -323 -462 -485 -525 -868 -31 -190 -51 -206 -76 -62 -29 171 -90
320 -187 461 -57 83 -139 168 -454 469 -360 345 -512 562 -618 887 -58 174
-69 251 -62 432 7 225 60 403 202 683 93 182 327 530 356 530 5 0 9 7 9 15 0
22 351 372 460 458 382 301 809 484 1207 517 277 22 489 -41 625 -187 58 -63
89 -123 125 -244 27 -92 28 -100 26 -314 -1 -224 -31 -533 -83 -870 -11 -71
-20 -142 -20 -157 l0 -28 129 0 129 0 11 48 c64 301 111 715 111 989 0 269
-24 398 -107 573 -74 155 -216 313 -412 458 -60 44 -361 224 -394 235 -4 1 -3
60 3 131 13 163 13 406 0 561 -26 298 -75 505 -119 505 -5 0 -30 -12 -57 -26z
m-2557 -5303 c327 -150 582 -286 768 -412 125 -84 315 -240 315 -258 0 -5 -9
-19 -19 -32 l-19 -24 -32 23 c-111 82 -233 161 -410 265 -94 55 -152 86 -540
292 -215 115 -266 145 -268 164 -5 32 17 54 48 47 15 -2 85 -32 157 -65z"/>
<path d="M10930 5786 c-86 -23 -173 -101 -307 -274 -171 -221 -246 -264 -543
-313 -344 -56 -481 -130 -573 -305 -50 -97 -50 -108 6 -88 65 23 199 51 337
70 214 30 683 19 726 -17 18 -15 18 -63 1 -77 -10 -8 -48 -8 -138 0 -297 26
-744 -11 -951 -78 -42 -14 -48 -19 -54 -51 -8 -44 1 -182 14 -195 9 -9 54 6
82 28 28 22 202 95 309 130 129 42 242 64 326 64 113 0 85 -54 -45 -85 -144
-34 -276 -77 -380 -122 -133 -59 -250 -123 -250 -138 0 -7 18 -37 40 -69 22
-31 40 -59 40 -61 0 -2 12 -17 28 -32 15 -16 47 -51 71 -76 l44 -47 122 122
c161 163 262 248 292 248 7 0 13 4 13 9 0 29 307 189 379 198 48 5 51 5 61
-22 14 -36 -4 -56 -68 -80 -151 -56 -379 -209 -552 -369 -53 -50 -154 -165
-149 -170 16 -15 154 -94 196 -112 166 -74 315 -104 516 -104 288 0 473 54
694 201 102 68 252 221 326 334 54 82 137 241 137 263 0 5 -28 17 -62 28 -56
17 -63 22 -66 47 -6 50 13 60 98 53 l76 -6 22 68 c12 38 22 79 22 91 0 25 -10
25 -135 6 -69 -11 -99 46 -38 74 22 10 138 30 181 31 11 0 13 22 10 103 -5
150 -26 174 -194 217 -92 24 -166 61 -214 109 -42 41 -55 65 -95 166 -36 91
-62 131 -115 179 -73 65 -138 80 -240 52z m391 -786 c23 -13 26 -62 4 -84 -8
-8 -15 -17 -15 -21 0 -3 -14 -23 -31 -44 -17 -22 -47 -67 -68 -102 -63 -109
-122 -116 -176 -21 -16 29 -56 87 -87 130 -32 42 -58 83 -58 92 0 25 22 48 50
53 54 9 362 7 381 -3z"/>
<path d="M12007 4923 c-3 -5 -8 -29 -11 -55 l-7 -48 78 0 c97 0 230 -14 397
-41 144 -24 146 -23 146 43 0 25 -6 40 -17 46 -20 11 -143 36 -250 52 -82 12
-330 14 -336 3z"/>
<path d="M11961 4688 c-14 -61 -17 -58 92 -88 118 -32 292 -101 413 -165 59
-30 112 -55 119 -55 32 0 58 65 37 96 -29 45 -277 163 -471 224 -170 54 -174
53 -190 -12z"/>
</g>
</svg>
